<svg width="82" height="69" viewBox="0 0 82 69" fill="none" xmlns="http://www.w3.org/2000/svg">
<g clip-path="url(#clip0_271_1360)">
<path d="M37.1058 48.8918H37.004C34.5506 48.6468 32.2499 47.5648 30.4888 45.8296C26.0503 41.6753 25.806 34.7039 29.9492 30.2536C29.99 30.2026 30.0409 30.1617 30.0816 30.1107C34.3368 25.6502 41.3814 25.4665 45.8606 29.7024C47.7235 31.5295 48.9044 33.9486 49.22 36.5412C49.2811 36.9903 48.9553 37.3986 48.5074 37.4598C48.0595 37.521 47.6523 37.1944 47.5912 36.7453C47.3876 34.5202 46.3696 32.4481 44.7408 30.9273C40.9538 27.2323 34.8967 27.3139 31.2116 31.111C27.5264 34.908 27.6078 40.9813 31.3948 44.6762C32.9727 46.2073 35.0189 47.1565 37.2076 47.3505C37.6148 47.4015 37.9202 47.7486 37.9202 48.167C37.8693 48.5957 37.513 48.902 37.1058 48.8918V48.8918Z" fill="white"/>
<path d="M34.4598 44.8088L34.0526 44.6047L32.6274 43.584C29.4818 40.5014 29.3901 35.4489 32.4238 32.2541C35.4676 29.1103 40.466 29.0184 43.6218 32.05C44.0494 32.448 44.426 32.8869 44.7416 33.3769C45.0063 33.6627 44.9859 34.122 44.7009 34.3874C44.65 34.4282 44.5991 34.469 44.538 34.4997C44.1613 34.7038 43.7032 34.6119 43.4182 34.2955C43.2044 33.8566 42.8888 33.4687 42.502 33.1727C39.9875 30.7434 35.997 30.8251 33.5741 33.3463C33.5639 33.3565 33.5538 33.3667 33.5436 33.3769C31.1004 35.9389 31.192 40.0115 33.7472 42.4612L34.867 43.2778C35.264 43.5023 35.3963 43.9923 35.1826 44.3903C35.1826 44.3903 35.1826 44.4005 35.1724 44.4005C34.9993 44.6353 34.7448 44.7782 34.4598 44.8088V44.8088Z" fill="white"/>
<path d="M28.9616 27.8653L13.2844 12.9629C14.7503 10.7582 14.1497 7.77769 11.9508 6.30787C11.1975 5.80772 10.322 5.53213 9.41597 5.51172C8.12311 5.51172 6.87097 6.02207 5.95477 6.94071C4.14272 8.83923 4.19362 11.8401 6.05657 13.6774C6.95241 14.5552 8.16383 15.0349 9.41597 15.0043C10.434 14.9941 11.4316 14.6777 12.2664 14.0857L27.8418 28.9881C27.9436 29.1922 28.1472 29.1922 28.3508 29.1922C28.5748 29.2228 28.7987 29.1514 28.9616 28.9881C29.2568 28.6818 29.2568 28.1817 28.9616 27.8653V27.8653ZM7.17637 12.5546C5.90387 11.3604 5.85297 9.34959 7.05421 8.08391C7.05421 8.08391 7.06439 8.0737 7.07457 8.06349C7.69555 7.43065 8.53031 7.0632 9.41597 7.04278C10.2202 7.04278 10.9939 7.37962 11.5538 7.96142C12.1748 8.54323 12.5412 9.34959 12.5718 10.207C12.5718 11.044 12.246 11.8605 11.6556 12.4525C11.0753 13.0752 10.2711 13.4426 9.41597 13.4733C8.57103 13.4835 7.76681 13.1466 7.17637 12.5546V12.5546Z" fill="white"/>
<path d="M36.6997 24.2924L28.9628 16.8412L29.2682 9.49213C30.4593 9.41047 31.5791 8.90012 32.4241 8.06313C34.2259 6.20544 34.175 3.22497 32.3223 1.42852C32.2917 1.3979 32.251 1.36727 32.2205 1.32645C31.3551 0.46905 30.1844 -0.0106839 28.9628 -0.000476795C27.6598 -0.0515123 26.3873 0.46905 25.5016 1.42852C23.6896 3.32704 23.7405 6.32793 25.6034 8.1652C26.1735 8.71639 26.8759 9.10426 27.6394 9.28799L27.334 17.4537L35.5799 25.4152C35.7326 25.5887 35.9565 25.701 36.1907 25.7214C36.4044 25.7418 36.608 25.6193 36.6997 25.4152C36.9949 25.109 36.9949 24.6088 36.6997 24.2924ZM25.807 4.79686C25.7256 3.95988 26.0208 3.1331 26.6214 2.5513C27.2424 1.91846 28.0772 1.551 28.9628 1.53059C29.7772 1.49997 30.5611 1.8368 31.1006 2.44923C31.742 3.02083 32.1085 3.83739 32.1186 4.69479C32.1186 5.53177 31.7929 6.34834 31.2024 6.94035C30.6222 7.56299 29.818 7.93044 28.9628 7.96106C27.2119 7.96106 25.807 6.55248 25.807 4.79686V4.79686Z" fill="white"/>
<path d="M25.1956 35.3168L17.357 27.8657L9.4166 29.1926C9.2639 28.2229 8.8058 27.3247 8.0932 26.6408C7.19736 25.763 5.98594 25.2833 4.7338 25.3139C3.45112 25.3139 2.21933 25.8753 1.37439 26.8449C-0.458009 28.6822 -0.447829 31.6525 1.37439 33.4898C1.40493 33.5204 1.43547 33.551 1.47619 33.5816C2.34149 34.439 3.5122 34.9188 4.7338 34.9086C6.0572 34.9188 7.31952 34.3676 8.195 33.3775C8.86688 32.6732 9.33516 31.7852 9.5184 30.8257L16.848 29.6009L24.0758 36.4396L24.5848 36.6438L25.1956 36.4396C25.5112 36.1232 25.5214 35.6231 25.1956 35.3168ZM7.0752 32.3568C6.44404 32.9692 5.60928 33.2958 4.7338 33.2754C3.03374 33.2754 1.62889 31.9179 1.57799 30.2133C1.55763 29.3355 1.88339 28.4985 2.49419 27.8657C3.08463 27.2736 3.89904 26.947 4.7338 26.947C5.55838 26.9368 6.35242 27.2226 6.9734 27.7636C7.55366 28.376 7.90996 29.1722 7.9914 30.0091C8.01176 30.887 7.67582 31.7341 7.0752 32.3568Z" fill="white"/>
<path d="M10.7401 51.1375H8.09331C7.96097 50.5965 7.67593 50.0964 7.2789 49.7085C6.68846 49.1165 5.87406 48.7898 5.0393 48.7898C4.174 48.7694 3.34942 49.1471 2.7997 49.8106C1.58828 51.0762 1.629 53.0768 2.88114 54.2915C2.89132 54.3017 2.89132 54.3017 2.9015 54.3119C3.4614 54.8937 4.23508 55.2305 5.0393 55.2305C5.92496 55.1999 6.75972 54.8325 7.3807 54.2098C7.73701 53.8424 7.98133 53.383 8.09331 52.8829H10.8419C11.2491 52.8319 11.5545 52.4848 11.5545 52.0663C11.6156 51.6172 11.2898 51.2089 10.8521 51.1579C10.8114 51.1477 10.7706 51.1375 10.7401 51.1375V51.1375ZM6.1591 53.1789C5.86388 53.4851 5.46686 53.6688 5.0393 53.6893C4.6321 53.6586 4.24526 53.5157 3.9195 53.281C3.32906 52.6481 3.32906 51.6683 3.9195 51.0354C4.18418 50.6884 4.60156 50.5046 5.0393 50.5251C5.45668 50.5046 5.8537 50.6475 6.1591 50.9333C6.78008 51.5049 6.81062 52.4746 6.24054 53.0972C6.21 53.1279 6.17946 53.1585 6.1591 53.1789V53.1789Z" fill="white"/>
<path d="M28.2488 45.932C27.9332 45.636 27.4446 45.636 27.129 45.932L24.8894 48.2796C24.5942 48.596 24.5942 49.086 24.8894 49.4024L25.5002 49.6065L26.0092 49.4024L28.2488 47.0547C28.544 46.7485 28.544 46.2484 28.2488 45.932Z" fill="white"/>
<path d="M17.1536 51.0352H13.9978C13.611 50.9739 13.2445 51.2393 13.1834 51.6272C13.1732 51.6986 13.1732 51.7803 13.1834 51.8517C13.1834 52.2498 13.499 52.5662 13.8858 52.5764C13.9266 52.5764 13.9571 52.5764 13.9978 52.5662H17.1536C17.5608 52.4641 17.968 52.1579 17.968 51.7497C17.9171 51.3414 17.5608 51.0352 17.1536 51.0352Z" fill="white"/>
<path d="M22.6499 50.5248L22.3445 50.9331H20.3085C19.8606 50.9331 19.4941 51.3005 19.4941 51.7496C19.4941 52.1987 19.8606 52.5662 20.3085 52.5662H22.7517L23.2607 52.3621L23.8715 51.7496C24.1566 51.4843 24.1769 51.0249 23.9021 50.7391C23.8614 50.6983 23.8206 50.6575 23.7697 50.6269C23.4745 50.3002 22.9859 50.2594 22.6499 50.5248V50.5248Z" fill="white"/>
<path d="M49.8311 7.04313C49.1999 6.52257 48.4059 6.23677 47.5915 6.22656C46.7567 6.22656 45.9423 6.55319 45.3519 7.1452C44.1201 8.4415 44.171 10.4931 45.4537 11.7384C45.9016 12.1671 46.4717 12.4529 47.0825 12.555L47.3879 15.413C47.4286 15.7906 47.7238 16.0866 48.1005 16.1275H48.2023C48.6502 16.0764 48.9658 15.6681 48.9149 15.219V15.2088L48.6095 12.3508C49.1185 12.2181 49.5868 11.9323 49.9329 11.5343C51.1443 10.2788 51.1036 8.26798 49.8514 7.06354C49.8413 7.05334 49.8311 7.05334 49.8311 7.04313V7.04313ZM48.8131 10.5135C48.4873 10.8402 48.0496 11.0239 47.5915 11.0239C47.1639 11.0035 46.7669 10.8198 46.4717 10.5135C45.8812 9.8807 45.8812 8.90082 46.4717 8.26798C47.0418 7.64535 48.0089 7.61473 48.6298 8.18633C48.6604 8.21695 48.6807 8.23736 48.7113 8.26798C49.2814 8.89062 49.3323 9.83988 48.8131 10.5135V10.5135Z" fill="white"/>
<path d="M48.4062 17.6582C47.9787 17.7603 47.6834 18.1379 47.6936 18.5768L47.999 21.741C48.0499 22.1493 48.396 22.4555 48.8134 22.4555H48.9152C49.3224 22.3331 49.6075 21.9656 49.6278 21.5369L49.3224 18.3727C49.1901 17.9746 48.8236 17.6888 48.4062 17.6582Z" fill="white"/>
<path d="M47.9981 24.0891L45.7585 26.3346C45.4633 26.6511 45.4633 27.141 45.7585 27.4574C45.9214 27.6207 46.1454 27.6922 46.3693 27.6616C46.5729 27.6616 46.7765 27.6616 46.8783 27.4574L49.1179 25.1098C49.4131 24.7934 49.4131 24.3034 49.1179 23.987C48.8532 23.7012 48.3951 23.6808 48.1101 23.9564C48.0592 23.9972 48.0287 24.038 47.9981 24.0891V24.0891Z" fill="white"/>
<path d="M67.4434 69.0002H67.2398L62.557 67.6733C62.1702 67.5815 61.936 67.1936 62.0276 66.8057C62.0276 66.7853 62.0378 66.7649 62.048 66.7547C62.1396 66.3158 62.5774 66.03 63.0151 66.132C63.0355 66.132 63.0457 66.1423 63.066 66.1423L67.647 67.4692C68.0542 67.6733 68.2171 68.1633 68.0135 68.5613C67.8913 68.7961 67.6877 68.9594 67.4434 69.0002V69.0002Z" fill="white"/>
<path d="M59.5015 66.7541H59.2979L44.5368 62.4671C43.1218 62.1303 41.9511 61.1504 41.381 59.8133C40.8313 58.4557 40.9128 56.9247 41.5846 55.6284C42.7248 53.6278 45.0967 52.6989 47.2854 53.3828H47.5908L35.3748 41.7467C33.461 39.838 33.461 36.735 35.3748 34.8161C35.5683 34.6222 35.7719 34.4486 35.9856 34.2955C37.9097 33.0298 40.4547 33.285 42.0936 34.9079L49.1179 41.6446C49.6472 40.5116 50.594 39.6338 51.7647 39.1949C53.0575 38.6948 54.5031 38.7662 55.7349 39.3991C55.9385 38.8377 56.2948 38.3477 56.7529 37.9701C58.117 36.4594 60.2955 36.0103 62.1483 36.8473C62.7794 36.1634 63.5938 35.6633 64.4897 35.4183C66.2813 35.0611 68.1443 35.5918 69.4779 36.8473L77.1129 44.1964C77.1129 44.2985 77.2147 44.2985 77.2147 44.4006L81.8975 52.1579C82.1011 52.5356 82.0095 52.9949 81.6939 53.2807C81.307 53.5053 80.8082 53.3726 80.5843 52.9847C80.5843 52.9847 80.5843 52.9745 80.5741 52.9745L75.8913 45.3192L68.3581 38.0721C67.4521 37.1637 66.149 36.7758 64.8969 37.0514C64.1232 37.2148 63.4615 37.6945 63.0645 38.3784L62.5555 38.6846C62.3519 38.7458 62.1177 38.705 61.9447 38.5825C60.6518 37.7761 58.9823 37.9497 57.8727 38.9908C57.3637 39.4705 57.0684 40.134 57.0583 40.8281C56.9768 41.1139 56.7936 41.369 56.5493 41.5426C56.2642 41.6344 55.9486 41.5528 55.7349 41.3384C54.8187 40.5219 53.5462 40.2463 52.3755 40.6239C51.2455 41.0424 50.4616 42.0733 50.3395 43.2778C50.3395 43.584 50.0341 43.7881 49.8305 43.8902C49.5251 44.0025 49.1891 43.9719 48.9142 43.7881L41.0756 36.1328C39.9457 35.0406 38.2151 34.8671 36.9018 35.7245C36.0976 36.2349 35.5988 37.1127 35.5784 38.0721C35.4359 39.0214 35.782 39.9809 36.4946 40.6239L50.9503 54.5056C51.2048 54.7403 51.2862 55.1078 51.1539 55.4242C50.9604 55.7304 50.594 55.8937 50.2377 55.8325L46.8782 54.9139C45.392 54.4239 43.7632 55.067 43.0098 56.4449C42.2158 57.9964 42.8164 59.9051 44.374 60.7115C44.5572 60.8034 44.7506 60.885 44.944 60.9361L59.7051 65.223C60.1428 65.3149 60.4278 65.7538 60.326 66.1927C60.326 66.2131 60.3159 66.2233 60.3159 66.2438C60.1835 66.5806 59.8476 66.7847 59.5015 66.7541Z" fill="white"/>
</g>
<defs>
<clipPath id="clip0_271_1360">
<rect width="82" height="69" fill="white"/>
</clipPath>
</defs>
</svg>
