<svg width="135" height="117" viewBox="0 0 135 117" fill="none" xmlns="http://www.w3.org/2000/svg">
<path d="M75.6244 3.62389C76.6204 3.62389 77.4278 2.81266 77.4278 1.81195C77.4278 0.811235 76.6204 0 75.6244 0V3.62389ZM81.9921 0C80.9961 0 80.1886 0.811235 80.1886 1.81195C80.1886 2.81266 80.9961 3.62389 81.9921 3.62389V0ZM107.252 94.8228C106.255 94.8228 105.448 95.634 105.448 96.6348C105.448 97.6355 106.255 98.4467 107.252 98.4467V94.8228ZM98.5316 98.4467C99.5277 98.4467 100.335 97.6355 100.335 96.6348C100.335 95.634 99.5277 94.8228 98.5316 94.8228V98.4467ZM9.57541 3.62389H75.6244V0H9.57541V3.62389ZM81.9921 3.62389H125.425V0H81.9921V3.62389ZM125.425 94.8228H107.252V98.4467H125.425V94.8228ZM98.5316 94.8228H9.57541V98.4467H98.5316V94.8228ZM3.64984 88.8693V83.4935H0.0429688V88.8693H3.64984ZM3.64984 83.4935V9.57743H0.0429688V83.4935H3.64984ZM131.351 9.57743V83.4935H134.957V9.57743H131.351ZM131.351 83.4935V88.8693H134.957V83.4935H131.351ZM1.8464 85.3054H133.154V81.6815H1.8464V85.3054ZM9.57541 94.8228C6.30279 94.8228 3.64984 92.1572 3.64984 88.8693H0.0429688C0.0429688 94.1586 4.31079 98.4467 9.57541 98.4467V94.8228ZM125.425 98.4467C130.689 98.4467 134.957 94.1586 134.957 88.8693H131.351C131.351 92.1572 128.697 94.8228 125.425 94.8228V98.4467ZM125.425 3.62389C128.697 3.62389 131.351 6.28937 131.351 9.57743H134.957C134.957 4.28797 130.689 0 125.425 0V3.62389ZM9.57541 0C4.31079 0 0.0429688 4.28797 0.0429688 9.57743H3.64984C3.64984 6.28937 6.30279 3.62389 9.57541 3.62389V0Z" fill="white"/>
<path d="M81.862 114.929L80.0719 115.147C80.1817 116.057 80.95 116.741 81.862 116.741V114.929ZM89.8126 116.741C90.8086 116.741 91.616 115.93 91.616 114.929C91.616 113.929 90.8086 113.117 89.8126 113.117V116.741ZM46.7273 113.117C45.7313 113.117 44.9238 113.929 44.9238 114.929C44.9238 115.93 45.7313 116.741 46.7273 116.741V113.117ZM78.0202 98.1415L80.0719 115.147L83.6525 114.711L81.6008 97.7051L78.0202 98.1415ZM81.862 116.741H89.8126V113.117H81.862V116.741ZM89.8126 113.117H55.4468V116.741H89.8126V113.117ZM55.4468 113.117H46.7273V116.741H55.4468V113.117ZM57.2374 115.147L59.2887 98.1415L55.7081 97.7051L53.6568 114.711L57.2374 115.147Z" fill="white"/>
<path fill-rule="evenodd" clip-rule="evenodd" d="M20.9575 17.2387C19.2026 17.2387 17.7938 18.6543 17.7938 20.3835V28.8363H117.208V21.9204C117.208 19.3425 115.108 17.2387 112.502 17.2387H20.9575ZM117.208 32.7929H17.7938V81.1083H117.208V32.7929ZM13.8398 20.3835C13.8398 16.454 17.0341 13.2822 20.9575 13.2822H112.502C117.277 13.2822 121.162 17.142 121.162 21.9204V83.0866C121.162 84.1791 120.277 85.0648 119.185 85.0648H15.8168C14.725 85.0648 13.8398 84.1791 13.8398 83.0866V20.3835Z" fill="white"/>
<path d="M25.698 26.5477C27.256 26.5477 28.5191 25.2787 28.5191 23.7133C28.5191 22.1479 27.256 20.8789 25.698 20.8789C24.14 20.8789 22.877 22.1479 22.877 23.7133C22.877 25.2787 24.14 26.5477 25.698 26.5477Z" fill="white"/>
<path d="M35.9558 26.5477C37.5139 26.5477 38.7769 25.2787 38.7769 23.7133C38.7769 22.1479 37.5139 20.8789 35.9558 20.8789C34.3978 20.8789 33.1348 22.1479 33.1348 23.7133C33.1348 25.2787 34.3978 26.5477 35.9558 26.5477Z" fill="white"/>
<path d="M46.2136 26.5477C47.7717 26.5477 49.0347 25.2787 49.0347 23.7133C49.0347 22.1479 47.7717 20.8789 46.2136 20.8789C44.6556 20.8789 43.3926 22.1479 43.3926 23.7133C43.3926 25.2787 44.6556 26.5477 46.2136 26.5477Z" fill="white"/>
<path d="M43.6548 60.6094C44.4947 60.6094 45.1757 59.929 45.1757 59.0896C45.1757 58.2502 44.4947 57.5698 43.6548 57.5698V60.6094ZM50.7921 57.5698C49.9522 57.5698 49.2712 58.2502 49.2712 59.0896C49.2712 59.929 49.9522 60.6094 50.7921 60.6094V57.5698ZM31.7631 46.5611H98.1546V43.5215H31.7631V46.5611ZM97.5028 45.9098V58.2211H100.545V45.9098H97.5028ZM32.4149 58.2211V45.9098H29.373V58.2211H32.4149ZM32.4149 80.6984V71.629H29.373V80.6984H32.4149ZM31.7631 72.2803H57.2766V69.2407H31.7631V72.2803ZM56.6247 71.629V80.6984H59.6666V71.629H56.6247ZM57.2766 80.0471H31.7631V83.0867H57.2766V80.0471ZM76.753 80.6984V71.629H73.7112V80.6984H76.753ZM76.1012 72.2803H98.1546V69.2407H76.1012V72.2803ZM97.5028 71.629V80.6984H100.545V71.629H97.5028ZM98.1546 80.0471H76.1012V83.0867H98.1546V80.0471ZM43.6548 57.5698H31.7631V60.6094H43.6548V57.5698ZM98.1546 57.5698H50.7921V60.6094H98.1546V57.5698ZM97.5028 80.6984C97.5028 80.3389 97.7943 80.0471 98.1546 80.0471V83.0867C99.4743 83.0867 100.545 82.0176 100.545 80.6984H97.5028ZM98.1546 72.2803C97.7943 72.2803 97.5028 71.9885 97.5028 71.629H100.545C100.545 70.3098 99.4743 69.2407 98.1546 69.2407V72.2803ZM76.753 71.629C76.753 71.9885 76.4615 72.2803 76.1012 72.2803V69.2407C74.7815 69.2407 73.7112 70.3098 73.7112 71.629H76.753ZM73.7112 80.6984C73.7112 82.0176 74.7815 83.0867 76.1012 83.0867V80.0471C76.4615 80.0471 76.753 80.3389 76.753 80.6984H73.7112ZM56.6247 80.6984C56.6247 80.3389 56.9168 80.0471 57.2766 80.0471V83.0867C58.5967 83.0867 59.6666 82.0176 59.6666 80.6984H56.6247ZM57.2766 72.2803C56.9168 72.2803 56.6247 71.9885 56.6247 71.629H59.6666C59.6666 70.3098 58.5967 69.2407 57.2766 69.2407V72.2803ZM32.4149 71.629C32.4149 71.9885 32.123 72.2803 31.7631 72.2803V69.2407C30.4431 69.2407 29.373 70.3098 29.373 71.629H32.4149ZM29.373 80.6984C29.373 82.0176 30.4431 83.0867 31.7631 83.0867V80.0471C32.123 80.0471 32.4149 80.3389 32.4149 80.6984H29.373ZM29.373 58.2211C29.373 59.5403 30.4431 60.6094 31.7631 60.6094V57.5698C32.123 57.5698 32.4149 57.8616 32.4149 58.2211H29.373ZM97.5028 58.2211C97.5028 57.8616 97.7943 57.5698 98.1546 57.5698V60.6094C99.4743 60.6094 100.545 59.5403 100.545 58.2211H97.5028ZM98.1546 46.5611C97.7943 46.5611 97.5028 46.2695 97.5028 45.9098H100.545C100.545 44.5907 99.4743 43.5215 98.1546 43.5215V46.5611ZM31.7631 43.5215C30.4431 43.5215 29.373 44.5907 29.373 45.9098H32.4149C32.4149 46.2695 32.123 46.5611 31.7631 46.5611V43.5215Z" fill="white"/>
</svg>
