<svg width="395" height="501" viewBox="0 0 395 501" fill="none" xmlns="http://www.w3.org/2000/svg">
<path d="M90.54 100.34L85.11 55.9502L72.3 63.2302L90.54 100.34Z" fill="#6546ED"/>
<path d="M30.6105 30.7002L85.2705 56.3002L72.9305 65.4902L38.0705 56.6402L30.6105 30.7002Z" fill="#6546ED"/>
<path d="M71.31 142.2L90.54 100.34L73.12 64.9803L38.09 55.7803L16.48 89.8003L27.61 120.85L71.31 142.2Z" fill="#6546ED"/>
<path opacity="0.6471" d="M82.2998 118.28L28.3598 71.4297L17.5498 88.4397L27.6098 120.85L71.3098 142.2L82.2998 118.28Z" fill="#957CFF"/>
<path d="M38.0898 55.78L30.2798 30L-0.000167847 91.97L16.8298 89.63L38.0898 55.78Z" fill="#7A5BFF"/>
<path d="M27.7305 120.98L17.7105 88.79L0.000457764 91.97L27.7305 120.98Z" fill="#957CFF"/>
<path d="M169.84 128.36L162 120.02L165.53 118.7L169.84 128.36Z" fill="#6546ED"/>
<path d="M165.97 105.18L162.05 120.11L165.87 119.19L169.84 110.89L165.97 105.18Z" fill="#6546ED"/>
<path d="M181.21 131.43L169.84 128.36L165.74 119.14L169.67 110.75L179.89 112.08L184.17 119.35L181.21 131.43Z" fill="#6546ED"/>
<path opacity="0.6471" d="M174.71 129.67L174.34 111.41L179.45 112.07L184.17 119.35L181.21 131.43L174.71 129.67Z" fill="#957CFF"/>
<path d="M169.67 110.75L165.88 105L183.02 109.2L179.8 112.12L169.67 110.75Z" fill="#7A5BFF"/>
<path d="M184.09 119.17L179.49 112.16L183.02 109.2L184.09 119.17Z" fill="#957CFF"/>
<path d="M157.49 37.2301L145 23.9401L150.62 21.8301L157.49 37.2301Z" fill="#6546ED"/>
<path d="M151.32 0.279297L145.07 24.0793L151.17 22.6193L157.5 9.3893L151.32 0.279297Z" fill="#6546ED"/>
<path d="M175.611 42.1299L157.491 37.2299L150.961 22.5399L157.221 9.16992L173.521 11.2799L180.341 22.8699L175.611 42.1299Z" fill="#6546ED"/>
<path opacity="0.6471" d="M165.261 39.33L164.661 10.21L172.811 11.26L180.341 22.87L175.611 42.13L165.261 39.33Z" fill="#957CFF"/>
<path d="M157.22 9.17L151.18 0L178.5 6.68999L173.37 11.35L157.22 9.17Z" fill="#7A5BFF"/>
<path d="M180.2 22.5904L172.88 11.4104L178.5 6.69043L180.2 22.5904Z" fill="#957CFF"/>
<path d="M98.8906 249.21L96.8206 203.01L90.2906 240.33L82.5806 270.48L98.8906 249.21Z" fill="#957CFF"/>
<path d="M63.5507 268.89C71.6207 260.93 88.3007 245.33 89.2607 244.38L82.5807 270.48L63.5507 268.89Z" fill="#7A5BFF"/>
<path d="M63.5602 268.89L77.4102 242.63L50.0002 239.37L63.5602 268.89Z" fill="#6546ED"/>
<path d="M74.6002 211.439L77.4102 242.629L50.0102 239.379L74.6002 211.439Z" fill="#6546ED"/>
<path d="M74.6105 211.45L96.8105 203L90.3005 240.29L89.2605 244.39L63.5505 268.89L77.4105 242.64L74.6105 211.45Z" fill="#6546ED"/>
<path d="M74.6103 211.45L90.3003 240.22L96.8203 203.01L74.6103 211.45Z" fill="#6546ED"/>
<path d="M278.37 495.2L357.62 428.61L333.82 437.36L262.31 500.89L278.37 495.2Z" fill="#6546ED"/>
<path d="M311.69 411.55L333.75 437.36L357.59 428.64L327.42 390.26L250.61 354L266.84 393.05L311.69 411.55Z" fill="#C0B1FF"/>
<path d="M262.31 500.889L333.8 437.379L311.76 411.559L266.86 393.029L225.29 472.819L251.53 481.219L262.31 500.889Z" fill="#7A5BFF"/>
<path d="M250.61 354.01L266.83 393.01L225.31 472.83L213 452.03L250.61 354.01Z" fill="#7A5BFF"/>
<path d="M251.531 481.23L311.771 411.57L266.83 393L225.301 472.82L251.531 481.23Z" fill="#957CFF"/>
<path d="M74.9395 437.14L54.4294 384L61.4194 430.15L64.2195 468.37L74.9395 437.14Z" fill="#957CFF"/>
<path d="M41.3795 473.969C47.6895 461.519 61.0594 436.769 61.8094 435.279L64.2295 468.369L41.3795 473.969Z" fill="#7A5BFF"/>
<path d="M41.3794 473.96L47.2793 437.88L13.9994 444.8L41.3794 473.96Z" fill="#6546ED"/>
<path d="M31.7893 402.55L47.2793 437.87L13.9994 444.8L31.7893 402.55Z" fill="#6546ED"/>
<path d="M31.7996 402.56L54.4196 384L61.4095 430.09L61.8096 435.29L41.3796 473.97L47.2896 437.88L31.7996 402.56Z" fill="#6546ED"/>
<path d="M31.7996 402.55L61.3896 430.01L54.4296 384.01L31.7996 402.55Z" fill="#6546ED"/>
<path d="M394.828 207.076L391.228 231.046C390.448 233.666 386.938 255.996 386.728 257.226L375.988 246.876L394.528 205.296C394.828 205.826 394.928 206.446 394.828 207.076Z" fill="#6546ED"/>
<path d="M391.697 204.056C392.857 203.826 393.987 204.316 394.527 205.306L376.547 247.306L366.827 237.936L342.037 214.046L391.697 204.056Z" fill="#957CFF"/>
<path d="M337.008 267.206L360.798 262.696C363.378 261.816 385.548 257.456 386.768 257.206L376.028 246.856L335.228 266.976C335.768 267.246 336.388 267.326 337.008 267.206Z" fill="#6546ED"/>
<path d="M334.038 264.026C333.848 265.196 334.388 266.306 335.388 266.816L376.628 247.236L366.908 237.866L342.118 213.976L334.038 264.026Z" fill="#957CFF"/>
<path opacity="0.749" d="M342.038 214.036L338.678 234.696L384.608 228.326L389.998 216.086L366.798 209.066L342.038 214.036Z" fill="#C0B1FF"/>
<path d="M214.891 293.21L212.821 247.01L206.291 284.33L198.581 314.48L214.891 293.21Z" fill="#957CFF"/>
<path d="M179.551 312.89C187.621 304.93 204.301 289.33 205.261 288.38L198.581 314.48L179.551 312.89Z" fill="#7A5BFF"/>
<path d="M179.56 312.89L193.41 286.63L166 283.37L179.56 312.89Z" fill="#6546ED"/>
<path d="M190.6 255.439L193.41 286.629L166.01 283.379L190.6 255.439Z" fill="#6546ED"/>
<path d="M190.611 255.45L212.811 247L206.301 284.29L205.261 288.39L179.551 312.89L193.411 286.64L190.611 255.45Z" fill="#6546ED"/>
<path d="M190.61 255.45L206.3 284.22L212.82 247.01L190.61 255.45Z" fill="#6546ED"/>
</svg>
